<svg xmlns="http://www.w3.org/2000/svg" xmlns:xlink="http://www.w3.org/1999/xlink" contentStyleType="text/css" height="473px" preserveAspectRatio="none" style="width:891px;height:473px;background:#FFFFFF;" version="1.1" viewBox="0 0 891 473" width="891px" zoomAndPan="magnify"><defs/><g><line style="stroke:#181818;stroke-width:0.5;stroke-dasharray:5.0,5.0;" x1="23" x2="23" y1="81.2969" y2="392.625"/><line style="stroke:#181818;stroke-width:0.5;stroke-dasharray:5.0,5.0;" x1="200.2075" x2="200.2075" y1="81.2969" y2="392.625"/><line style="stroke:#181818;stroke-width:0.5;stroke-dasharray:5.0,5.0;" x1="479.1606" x2="479.1606" y1="81.2969" y2="392.625"/><line style="stroke:#181818;stroke-width:0.5;stroke-dasharray:5.0,5.0;" x1="624.2061" x2="624.2061" y1="81.2969" y2="392.625"/><line style="stroke:#181818;stroke-width:0.5;stroke-dasharray:5.0,5.0;" x1="863.7021" x2="863.7021" y1="81.2969" y2="392.625"/><text fill="#000000" font-family="sans-serif" font-size="14" lengthAdjust="spacing" textLength="31.9102" x="5" y="77.9951">User</text><ellipse cx="23.9551" cy="13.5" fill="#E2E2F0" rx="8" ry="8" style="stroke:#181818;stroke-width:0.5;"/><path d="M23.9551,21.5 L23.9551,48.5 M10.9551,29.5 L36.9551,29.5 M23.9551,48.5 L10.9551,63.5 M23.9551,48.5 L36.9551,63.5 " fill="none" style="stroke:#181818;stroke-width:0.5;"/><text fill="#000000" font-family="sans-serif" font-size="14" lengthAdjust="spacing" textLength="31.9102" x="5" y="404.6201">User</text><ellipse cx="23.9551" cy="416.4219" fill="#E2E2F0" rx="8" ry="8" style="stroke:#181818;stroke-width:0.5;"/><path d="M23.9551,424.4219 L23.9551,451.4219 M10.9551,432.4219 L36.9551,432.4219 M23.9551,451.4219 L10.9551,466.4219 M23.9551,451.4219 L36.9551,466.4219 " fill="none" style="stroke:#181818;stroke-width:0.5;"/><rect fill="#E2E2F0" height="30.2969" rx="2.5" ry="2.5" style="stroke:#181818;stroke-width:0.5;" width="77.1094" x="162.2075" y="50"/><text fill="#000000" font-family="sans-serif" font-size="14" lengthAdjust="spacing" textLength="63.1094" x="169.2075" y="69.9951">Frontend</text><rect fill="#E2E2F0" height="30.2969" rx="2.5" ry="2.5" style="stroke:#181818;stroke-width:0.5;" width="77.1094" x="162.2075" y="391.625"/><text fill="#000000" font-family="sans-serif" font-size="14" lengthAdjust="spacing" textLength="63.1094" x="169.2075" y="411.6201">Frontend</text><rect fill="#E2E2F0" height="30.2969" rx="2.5" ry="2.5" style="stroke:#181818;stroke-width:0.5;" width="74.3613" x="442.1606" y="50"/><text fill="#000000" font-family="sans-serif" font-size="14" lengthAdjust="spacing" textLength="60.3613" x="449.1606" y="69.9951">Backend</text><rect fill="#E2E2F0" height="30.2969" rx="2.5" ry="2.5" style="stroke:#181818;stroke-width:0.5;" width="74.3613" x="442.1606" y="391.625"/><text fill="#000000" font-family="sans-serif" font-size="14" lengthAdjust="spacing" textLength="60.3613" x="449.1606" y="411.6201">Backend</text><rect fill="#E2E2F0" height="30.2969" rx="2.5" ry="2.5" style="stroke:#181818;stroke-width:0.5;" width="88.1289" x="580.2061" y="50"/><text fill="#000000" font-family="sans-serif" font-size="14" lengthAdjust="spacing" textLength="74.1289" x="587.2061" y="69.9951">LangChain</text><rect fill="#E2E2F0" height="30.2969" rx="2.5" ry="2.5" style="stroke:#181818;stroke-width:0.5;" width="88.1289" x="580.2061" y="391.625"/><text fill="#000000" font-family="sans-serif" font-size="14" lengthAdjust="spacing" textLength="74.1289" x="587.2061" y="411.6201">LangChain</text><rect fill="#E2E2F0" height="30.2969" rx="2.5" ry="2.5" style="stroke:#181818;stroke-width:0.5;" width="41.6787" x="843.7021" y="50"/><text fill="#000000" font-family="sans-serif" font-size="14" lengthAdjust="spacing" textLength="27.6787" x="850.7021" y="69.9951">LLM</text><rect fill="#E2E2F0" height="30.2969" rx="2.5" ry="2.5" style="stroke:#181818;stroke-width:0.5;" width="41.6787" x="843.7021" y="391.625"/><text fill="#000000" font-family="sans-serif" font-size="14" lengthAdjust="spacing" textLength="27.6787" x="850.7021" y="411.6201">LLM</text><polygon fill="#181818" points="188.7622,108.4297,198.7622,112.4297,188.7622,116.4297,192.7622,112.4297" style="stroke:#181818;stroke-width:1;"/><line style="stroke:#181818;stroke-width:1;" x1="23.9551" x2="194.7622" y1="112.4297" y2="112.4297"/><text fill="#000000" font-family="sans-serif" font-size="13" lengthAdjust="spacing" textLength="129.4541" x="30.9551" y="107.3638">Draw vector shapes</text><polygon fill="#181818" points="188.7622,137.5625,198.7622,141.5625,188.7622,145.5625,192.7622,141.5625" style="stroke:#181818;stroke-width:1;"/><line style="stroke:#181818;stroke-width:1;" x1="23.9551" x2="194.7622" y1="141.5625" y2="141.5625"/><text fill="#000000" font-family="sans-serif" font-size="13" lengthAdjust="spacing" textLength="116.6064" x="30.9551" y="136.4966">Enter text prompt</text><polygon fill="#181818" points="467.3413,166.6953,477.3413,170.6953,467.3413,174.6953,471.3413,170.6953" style="stroke:#181818;stroke-width:1;"/><line style="stroke:#181818;stroke-width:1;" x1="200.7622" x2="473.3413" y1="170.6953" y2="170.6953"/><text fill="#000000" font-family="sans-serif" font-size="13" lengthAdjust="spacing" textLength="254.5791" x="207.7622" y="165.6294">Send vector data + text prompt (JSON)</text><polygon fill="#181818" points="612.2705,195.8281,622.2705,199.8281,612.2705,203.8281,616.2705,199.8281" style="stroke:#181818;stroke-width:1;"/><line style="stroke:#181818;stroke-width:1;" x1="479.3413" x2="618.2705" y1="199.8281" y2="199.8281"/><text fill="#000000" font-family="sans-serif" font-size="13" lengthAdjust="spacing" textLength="120.5229" x="486.3413" y="194.7622">Process AI request</text><polygon fill="#181818" points="852.5415,224.9609,862.5415,228.9609,852.5415,232.9609,856.5415,228.9609" style="stroke:#181818;stroke-width:1;"/><line style="stroke:#181818;stroke-width:1;" x1="624.2705" x2="858.5415" y1="228.9609" y2="228.9609"/><text fill="#000000" font-family="sans-serif" font-size="13" lengthAdjust="spacing" textLength="216.271" x="631.2705" y="223.895">Generate Manim code from input</text><polygon fill="#181818" points="635.2705,254.0938,625.2705,258.0938,635.2705,262.0938,631.2705,258.0938" style="stroke:#181818;stroke-width:1;"/><line style="stroke:#181818;stroke-width:1;" x1="629.2705" x2="863.5415" y1="258.0938" y2="258.0938"/><text fill="#000000" font-family="sans-serif" font-size="13" lengthAdjust="spacing" textLength="132.1392" x="641.2705" y="253.0278">Return Manim script</text><polygon fill="#181818" points="490.3413,283.2266,480.3413,287.2266,490.3413,291.2266,486.3413,287.2266" style="stroke:#181818;stroke-width:1;"/><line style="stroke:#181818;stroke-width:1;" x1="484.3413" x2="623.2705" y1="287.2266" y2="287.2266"/><text fill="#000000" font-family="sans-serif" font-size="13" lengthAdjust="spacing" textLength="120.9292" x="496.3413" y="282.1606">Send Manim script</text><polygon fill="#181818" points="211.7622,312.3594,201.7622,316.3594,211.7622,320.3594,207.7622,316.3594" style="stroke:#181818;stroke-width:1;"/><line style="stroke:#181818;stroke-width:1;" x1="205.7622" x2="478.3413" y1="316.3594" y2="316.3594"/><text fill="#000000" font-family="sans-serif" font-size="13" lengthAdjust="spacing" textLength="173.583" x="217.7622" y="311.2935">Return Manim code (JSON)</text><polygon fill="#181818" points="188.7622,341.4922,198.7622,345.4922,188.7622,349.4922,192.7622,345.4922" style="stroke:#181818;stroke-width:1;"/><line style="stroke:#181818;stroke-width:1;" x1="23.9551" x2="194.7622" y1="345.4922" y2="345.4922"/><text fill="#000000" font-family="sans-serif" font-size="13" lengthAdjust="spacing" textLength="113.3628" x="30.9551" y="340.4263">Edit Manim script</text><polygon fill="#181818" points="188.7622,370.625,198.7622,374.625,188.7622,378.625,192.7622,374.625" style="stroke:#181818;stroke-width:1;"/><line style="stroke:#181818;stroke-width:1;" x1="23.9551" x2="194.7622" y1="374.625" y2="374.625"/><text fill="#000000" font-family="sans-serif" font-size="13" lengthAdjust="spacing" textLength="152.8071" x="30.9551" y="369.5591">Download Manim script</text><!--SRC=[RP7TRi8m38NlynI-t8Js0hj0uc_J9Wg8YWUmKcz46qxck9J79os5jLLlaaZ-pl6nWrQzm26I65EVy3A5D_6in0MymbAmWZCrK3nYe3X6hT93GEcY4CIVWXhpg2PoZlRd1kRrrTeLg0YJhWgUFlFjvjdS-IHT8tylZkWuYNVYBSK8imyG-Yifglalr-mwIzGxCGagGORiJc1zGV2LxC5nA5EmcXeOxqbBuLOGhRWmS1uCq0CxOJiRwLas6ThPHjTNEEsRZls4h_ZNOx_x5G00]--></g></svg>